<?xml version="1.0" encoding="UTF-8" standalone="no"?>
<svg
   width="254"
   height="254"
   viewBox="0 0 254 254"
   xmlns="http://www.w3.org/2000/svg"
   xmlns:sodipodi="http://sodipodi.sourceforge.net/DTD/sodipodi-0.dtd"
   xmlns:inkscape="http://www.inkscape.org/namespaces/inkscape"><g
     transform="translate(11.933,18.172)"><g
     transform="translate(-184.7869,-306.32086)"><path
       style="fill:#65bbd4;fill-opacity:1"
       d="m 239.77773,499.36014 c -1.21234,-0.55126 -1.20434,-0.50426 -3.17526,-1.79716 -1.4514,-0.95211 -4.31306,-3.67465 -6.27485,-6.13447 -0.98089,-1.22991 -2.61013,-3.49882 -4.12834,-5.74633 -1.51822,-2.2475 -2.58015,-4.74982 -3.11698,-6.17033 -1.07366,-2.84103 -1.40855,-6.16712 -1.757,-8.82609 -0.40043,-3.05573 -0.32743,-7.74694 0.67293,-12.03841 0.87047,-3.73427 2.21233,-6.92826 3.76027,-10.20716 3.17469,-6.72473 7.33468,-13.82821 11.26225,-19.25792 6.109,-8.03335 12.00878,-16.14695 12.50251,-17.09333 2.33148,-4.46901 5.36815,-8.08402 8.0718,-12.26895 3.30369,-4.93907 6.23789,-11.26508 7.44586,-14.47985 1.40262,-3.73282 2.41888,-6.97635 2.44905,-11.12744 0.026,-3.575 -3.2163,-17.30197 -3.2163,-20.16626 4.86787,7.59369 7.49686,12.6474 14.04554,23.99535 5.5544,9.625 10.99184,20.35989 12.0832,23.85532 1.09137,3.49544 1.97896,8.44544 1.97243,11.00001 -0.007,2.55456 -0.6129,6.89466 -1.34748,9.64466 -0.73459,2.75 -2.36706,7.025 -3.62771,9.5 -1.26065,2.475 -11.88803,18.04391 -23.6164,34.59758 -11.72837,16.55367 -23.29702,32.0698 -24.00552,32.72078 z" /><circle
       style="fill:#65bbd4;fill-opacity:1"
       cx="207.57451"
       cy="410.59149"
       r="22.787621" /><circle
       style="fill:#3c6aa6;fill-opacity:1"
       cx="354.24393"
       cy="501.18954"
       r="22.787621" /><circle
       style="fill:#0d9c96;fill-opacity:1"
       cx="359.76822"
       cy="329.10849"
       r="22.787621" /><path
       style="fill:#0d9c96;fill-opacity:1"
       d="m 265.94669,313.02415 c 1.08007,-0.77918 1.0353,-0.79555 3.13563,-1.86546 1.54671,-0.78789 5.33025,-1.92198 8.43926,-2.40507 1.55451,-0.24154 4.33279,-0.53059 7.0374,-0.73386 2.70461,-0.20327 5.40411,0.11604 6.90381,0.35462 2.99943,0.47717 6.05352,1.83641 8.53509,2.85294 2.85186,1.16821 6.8889,3.55884 10.11881,6.55636 2.81054,2.60832 4.91812,5.35792 6.99719,8.32857 4.26399,6.09253 8.36805,13.22848 11.13411,19.33228 3.94457,9.28951 8.0626,18.43718 8.63938,19.33536 2.72372,4.24137 4.67315,8.55832 6.96558,12.98192 2.64956,5.3187 6.5942,10.87098 8.78626,13.51463 2.54529,3.06966 5.10753,6.45185 8.69685,8.53735 3.09118,1.79607 16.14365,5.14659 18.63064,6.56751 -9.00828,0.45952 -14.70048,0.23531 -27.80232,0.29164 -11.11259,0.0479 -23.13086,-0.55633 -26.70725,-1.34275 -3.57642,-0.78642 -8.31469,-2.47137 -10.52951,-3.74433 -2.21459,-1.27336 -5.6824,-3.9525 -7.70575,-5.95455 -2.02333,-2.00206 -4.92536,-5.54026 -6.44894,-7.86266 -1.52359,-2.3224 -9.76959,-19.27338 -18.32443,-37.66885 -8.55484,-18.39547 -16.28805,-36.13754 -16.50181,-37.07565 z" /><path
       style="fill:#007e7b;fill-opacity:1"
       d="m 337.22044,365.18181 c 0.2386,-0.41734 10.84942,-0.16464 20.84937,-0.36071 9.66274,-0.18946 17.68251,-0.46781 24.74868,1.01972 4.67872,0.98494 8.28345,1.86808 12.82796,4.48113 5.37538,3.09075 9.0218,6.38548 12.52089,11.26698 2.32781,3.24747 4.34231,9.19733 5.31415,12.16256 0.97185,2.96524 1.50897,6.58651 1.43232,8.40533 -0.0767,1.81883 0.0354,4.07055 -0.18208,4.5343 -0.56754,0.0151 -11.74268,-0.0746 -22.52223,-0.0583 -15.44996,0.0233 -21.18127,-0.89356 -25.25413,-2.51284 -2.84167,-1.12977 -6.58124,-3.67848 -8.90693,-5.54446 -2.3257,-1.86594 -5.97509,-5.90485 -8.10975,-8.97535 -2.13467,-3.07051 -5.63835,-9.27188 -7.82954,-13.49257 -2.20912,-4.25523 -5.12729,-10.50848 -4.88869,-10.92581 z" /><path
       style="fill:#4f8899;fill-opacity:1"
       d="m 249.52326,412.08894 c -0.4807,-0.004 -5.4431,-9.38667 -10.4987,-18.01676 -4.88512,-8.33906 -9.04529,-15.20107 -11.19878,-22.09352 -1.4259,-4.5637 -2.41602,-8.14053 -2.35568,-13.38238 0.0713,-6.20018 1.16517,-10.99134 3.71557,-16.42899 1.69668,-3.61746 5.90448,-8.28153 8.01721,-10.57792 2.11274,-2.29641 5.01026,-4.53392 6.63479,-5.35545 1.62455,-0.82149 3.53463,-2.01916 4.04552,-2.05591 0.29039,0.48785 5.67066,10.28298 10.95019,19.68114 7.56693,13.4701 9.56635,18.91902 10.14279,23.2639 0.4022,3.03145 0.005,7.53949 -0.48741,10.48031 -0.49221,2.94081 -2.23396,8.09805 -3.87056,11.46053 -1.63661,3.36249 -5.33648,9.44885 -7.94912,13.42247 -2.63401,4.00613 -6.66514,9.60692 -7.14584,9.60257 z" /><path
       style="fill:#3c6aa6;fill-opacity:1"
       d="m 413.30987,428.67711 c 0.15582,1.32264 0.19189,1.29147 0.10573,3.64704 -0.0634,1.73467 -0.91175,5.59234 -2.00104,8.54408 -0.54465,1.47586 -1.64273,4.04426 -2.77995,6.50656 -1.13721,2.46231 -2.72862,4.66609 -3.66619,5.86066 -1.87517,2.38915 -4.54773,4.39724 -6.64247,6.07163 -2.40731,1.92423 -6.45904,4.28989 -10.64872,5.65518 -3.6457,1.18801 -7.0731,1.69304 -10.67982,2.0657 -7.39706,0.76428 -15.62817,0.88155 -22.30686,0.33137 -10.03552,-1.06906 -20.03142,-1.91758 -21.09672,-1.85021 -5.03056,0.31823 -9.75076,-0.0769 -14.73089,-0.22415 -5.93597,-0.27033 -12.70566,0.47753 -16.08156,1.1079 -3.91989,0.73195 -8.12115,1.32676 -11.68855,3.44949 -3.07234,1.82815 -12.34576,11.60549 -14.79653,13.08802 3.97784,-8.0955 6.94104,-12.96077 13.26133,-24.4375 5.36055,-9.73429 11.73128,-19.943 14.1572,-22.68598 2.42593,-2.74302 6.20187,-6.06453 8.39102,-7.38115 2.18938,-1.31622 6.2165,-3.04419 8.9497,-3.83903 2.7332,-0.79483 7.23596,-1.61074 10.00615,-1.81311 2.77017,-0.20239 21.592,0.83241 41.82629,2.29957 20.23427,1.46716 39.49813,3.33467 40.42184,3.60394 z" /><path
       style="fill:#394a7e;fill-opacity:1"
       d="m 334.20302,465.51229 c 0.23597,0.41882 -5.42824,9.39527 -10.39345,18.07767 -4.79776,8.38963 -8.67583,15.41493 -13.57981,20.71535 -3.24706,3.50957 -5.85544,6.14972 -10.43084,8.70832 -5.41185,3.02643 -10.11122,4.46434 -16.09667,4.96128 -3.9819,0.3306 -10.12209,-0.99496 -13.16569,-1.68313 -3.0436,-0.68819 -6.42703,-2.08622 -7.94856,-3.08569 -1.52151,-0.99952 -3.51144,-2.05924 -3.79778,-2.48394 0.27839,-0.49479 6.09211,-10.03903 11.6118,-19.29819 7.91122,-13.27081 11.64021,-17.71863 15.12066,-20.38262 2.42831,-1.85869 6.53517,-3.75969 9.3305,-4.79751 2.7952,-1.03799 8.13472,-2.09646 11.86559,-2.35214 3.73088,-0.25569 10.85138,-0.079 15.59834,0.20724 4.7858,0.2886 11.65025,0.99438 11.88592,1.41338 z" /></g></g></svg>
