<?xml version="1.0" encoding="UTF-8" standalone="no"?>
<!-- Created with Inkscape (http://www.inkscape.org/) -->

<svg
   version="1.1"
   id="svg1"
   width="1061.4059"
   height="217.65631"
   viewBox="0 0 1061.4059 217.65631"
   sodipodi:docname="logo.png"
   xml:space="preserve"
   xmlns:inkscape="http://www.inkscape.org/namespaces/inkscape"
   xmlns:sodipodi="http://sodipodi.sourceforge.net/DTD/sodipodi-0.dtd"
   xmlns="http://www.w3.org/2000/svg"
   xmlns:svg="http://www.w3.org/2000/svg"><defs
     id="defs1" /><sodipodi:namedview
     id="namedview1"
     pagecolor="#ffffff"
     bordercolor="#000000"
     borderopacity="0.25"
     inkscape:showpageshadow="2"
     inkscape:pageopacity="0.0"
     inkscape:pagecheckerboard="0"
     inkscape:deskcolor="#d1d1d1"><inkscape:page
       x="0"
       y="0"
       width="1061.4059"
       height="217.65631"
       id="page2"
       margin="0"
       bleed="0" /></sodipodi:namedview><g
     inkscape:groupmode="layer"
     inkscape:label="Image"
     id="g1"
     transform="translate(-117.39078,-440.00824)"><g
       id="g237"
       transform="translate(113.8,443.86085)"><path
         style="fill:#394a7e;fill-opacity:1"
         d="m 891.55632,45.094876 c -3.92729,-1.752896 -6.64424,-7.290519 -5.69575,-11.608934 1.66409,-7.576554 12.03167,-10.528797 17.5601,-5.000365 8.19604,8.196037 -1.21048,21.364529 -11.86435,16.609299 z"
         id="path236" /><path
         style="fill:#0d9c96;fill-opacity:1"
         d="m 495.36431,45.457643 c -6.24182,-2.51855 -8.63896,-8.734478 -5.56773,-14.437418 5.60693,-10.411425 21.32977,-4.773356 19.14628,6.865678 -1.13382,6.043748 -7.94814,9.843588 -13.57855,7.57174 z"
         id="path235" /><path
         style="fill:#0d9c96;fill-opacity:1"
         d="m 372.34375,51.50898 c 0,-1.787257 14.0698,-28.94648 14.99569,-28.94648 1.1088,0 11.00431,6.125922 11.00431,6.812335 0,0.282361 -3.832,5.615097 -8.51555,11.850524 -8.51555,11.337141 -8.51555,11.337141 -13,11.337141 -2.47484,0 -4.48445,-0.472112 -4.48445,-1.05352 z"
         id="path233" /><path
         style="fill:#394a7e;fill-opacity:1"
         d="M 889.34375,107.01684 V 62.47112 l 6.75,0.29569 6.75,0.29569 0.2604,44.25 0.2604,44.25 h -7.0104 -7.0104 z"
         id="path230" /><path
         style="fill:#394a7e;fill-opacity:1"
         d="m 792.34375,107.06254 v -44.5 h 5.38337 c 6.18897,0 6.57945,0.586337 6.60298,9.91476 l 0.0136,5.41476 4.6586,-4.725347 c 18.21541,-18.476404 53.57197,-15.273138 64.3414,5.829261 3.5,6.858154 3.5,6.858154 3.81195,39.712356 l 0.31194,32.85421 h -6.48567 -6.48566 l -0.36183,-30.75 c -0.33684,-28.626345 -0.5059,-31.063117 -2.44809,-35.283859 -2.68068,-5.825631 -8.23007,-10.696033 -13.07126,-11.471937 -2.07426,-0.332445 -4.63893,-0.783446 -5.69927,-1.002224 -8.53376,-1.76076 -23.37379,3.48874 -30.17431,10.673834 -7.83666,8.279831 -7.3978,5.992522 -7.3978,38.556696 v 29.27749 h -6.5 -6.5 z"
         id="path229" /><path
         style="fill:#0d9c96;fill-opacity:1"
         d="m 492.34375,107.06254 v -44.5 h 6.5 6.5 v 44.5 44.5 h -6.5 -6.5 z"
         id="path228" /><path
         style="fill:#0d9c96;fill-opacity:1"
         d="M 395.34375,107.01024 V 62.457981 l 5.25,0.302259 5.25,0.30226 1,7.310576 1,7.310575 3,-3.448655 c 13.0351,-14.984526 43.35447,-17.397299 57.91937,-4.609143 10.27453,9.021152 11.54671,14.816414 11.56585,52.686647 l 0.0148,29.25 h -6.40226 -6.40226 l -0.45858,-30.25 c -0.49266,-32.498123 -0.85019,-35.00541 -5.85812,-41.080892 -4.46837,-5.42091 -8.96055,-7.028805 -19.37878,-6.93628 -13.72431,0.121885 -22.74615,4.385447 -29.89917,14.12982 l -3.60083,4.905306 v 29.616026 29.61602 h -6.5 -6.5 z"
         id="path227" /><path
         style="fill:#0d9c96;fill-opacity:1"
         d="m 369.58335,107.3125 0.2604,-44.25 h 6.5 6.5 l 0.2604,44.25 0.2604,44.25 h -7.0208 -7.0208 z"
         id="path226" /><path
         style="fill:#0d9c96;fill-opacity:1"
         d="m 351.30564,150.3125 c -3.61485,-1.82286 -5.0314,-3.38903 -7.46189,-8.25 -3,-6 -3,-6 -3.28156,-62.75 l -0.28155,-56.75 h 6.53155 6.53156 l 0.006,53.25 c 0.007,62.92497 0.0333,63.10216 9.74769,64.67098 3.74673,0.60507 3.74673,0.60507 4.04663,6.34204 l 0.29991,5.73698 h -5.83802 c -4.06553,0 -7.19269,-0.68312 -10.2999,-2.25 z"
         id="path225" /><path
         style="fill:#394a7e;fill-opacity:1"
         d="m 720.2731,152.19513 c -20.06293,-5.40954 -23.89228,-15.00565 -23.91457,-59.92832 l -0.0148,-29.79569 6.75,0.29569 6.75,0.29569 0.5,31.5 c 0.5628,35.45634 0.66675,35.99101 8.26105,42.49146 8.83825,7.5652 28.54366,5.7575 39.21136,-3.59712 9.74796,-8.54809 9.52759,-7.59874 9.52759,-41.044378 V 62.5625 h 6.5 6.5 v 44.5 44.5 h -5.38337 c -6.13313,0 -6.57854,-0.63375 -6.60298,-9.39506 l -0.0136,-4.89505 -5.32337,5.03462 c -10.73602,10.15368 -27.43568,14.01657 -42.74728,9.88812 z"
         id="path224" /><path
         style="fill:#0d9c96;fill-opacity:1"
         d="m 621.84375,152.88134 c -18.97419,-4.26124 -27.26164,-25.18026 -16.66609,-42.06825 3.92264,-6.25219 15.8398,-9.2016 46.15956,-11.424161 l 17.25299,-1.264712 -0.64895,-6.982518 c -1.34481,-14.469603 -5.45825,-17.102964 -26.59751,-17.027297 -12.93885,0.04631 -15.35342,0.336998 -22.4266,2.699872 -9.22495,3.081699 -8.98407,3.145752 -10.47772,-2.786072 -1.48928,-5.914451 -1.4442,-5.963964 8.19831,-9.005456 17.00543,-5.363944 42.26652,-4.471641 52.85074,1.866858 10.23358,6.12851 11.26204,9.84281 11.85527,42.815236 0.5586,31.04783 0.45022,30.59966 7.68209,31.76635 5.28039,0.85186 6.5058,9.29605 1.62286,11.18292 -8.66186,3.34711 -17.62414,-0.98187 -18.9292,-9.14323 -0.76419,-4.779 -0.54692,-4.76145 -5.78711,-0.4675 -9.76635,8.00278 -31.08161,12.75908 -44.08864,9.83796 z m 25.24407,-12.73863 c 6.84463,-1.82215 12.85652,-4.78481 17.50593,-8.62694 3.75,-3.09888 3.75,-3.09888 3.75,-13.02607 v -9.9272 h -4.57791 c -8.01274,0 -27.91831,2.09742 -36.52054,3.84811 -9.90875,2.01658 -12.18726,4.54283 -12.18726,13.51229 0,13.42954 13.1195,19.25402 32.02978,14.21981 z"
         id="path223" /><path
         style="fill:#0d9c96;fill-opacity:1"
         d="m 547.45208,152.55166 c -21.27622,-4.52123 -35.10833,-22.05563 -35.10833,-44.5054 0,-22.992111 14.30635,-40.518714 37.15804,-45.522045 11.01618,-2.411968 43.84196,1.040956 43.84196,4.611709 0,0.954987 -5.04021,10.426576 -5.54839,10.426576 -0.28309,0 -3.08801,-0.854377 -6.23316,-1.898615 -12.4296,-4.126818 -28.23586,-3.517119 -38.8371,1.498072 -23.32386,11.033951 -22.62635,48.845803 1.11865,60.641823 9.30122,4.62066 25.54075,4.71649 38.7634,0.22875 3.98013,-1.35085 7.48521,-2.45922 7.78906,-2.46306 0.97819,-0.0123 4.14001,9.87259 3.49281,10.91977 -2.75208,4.45297 -34.50387,8.59821 -46.43694,6.06242 z"
         id="path222" /><path
         style="fill:#0d9c96;fill-opacity:1"
         d="m 284.11641,152.07906 c -43.87031,-11.18255 -45.92288,-72.857032 -2.91936,-87.719405 12.81172,-4.427838 50.1467,-2.007048 50.1467,3.2515 0,0.765412 -4.15424,8.106929 -5.51783,9.751292 -0.1368,0.164971 -2.88875,-0.576906 -6.11545,-1.648615 -30.62885,-10.173011 -55.93217,4.293872 -55.70493,31.848668 0.22517,27.30582 25.55012,41.00787 56.4262,30.52938 4.0766,-1.38349 7.66062,-2.51857 7.96447,-2.52241 0.97819,-0.0123 4.14001,9.87259 3.49281,10.91977 -3.03819,4.91591 -35.51044,8.71545 -47.77261,5.58982 z"
         id="path221" /><path
         style="fill:#394a7e;fill-opacity:1"
         d="m 988.59375,186.44372 c -3.43726,-0.99247 -3.97993,-3.03845 -2.35564,-8.88122 0.64546,-2.32181 1.1581,-2.50832 7.19219,-2.61669 10.5468,-0.18943 15.3033,-3.9739 19.7004,-15.67438 l 2.1764,-5.79108 -22.42712,-44.70892 C 970.45289,64.0625 970.45289,64.0625 970.39832,69.659029 l -0.0546,5.59653 -12.75,-0.367633 c -7.0125,-0.202197 -15.1125,-0.507658 -18,-0.678802 l -5.25,-0.311169 v 25.389452 c 0,28.015473 0.62666,32.490733 5.20542,37.174003 5.57662,5.7039 17.2701,6.53325 27.86329,1.97619 2.74568,-1.18117 5.14814,-1.97376 5.3388,-1.76134 0.82162,0.91546 4.59249,8.88814 4.59249,9.70984 0,0.4968 -2.8125,2.19939 -6.25,3.78354 -14.24024,6.56251 -37.47977,3.20425 -44.06546,-6.36775 -4.98891,-7.25115 -5.11761,-8.14254 -5.66513,-39.23939 l -0.51941,-29.5 -7,-1.005588 c -6.60108,-0.948282 -7.01804,-1.162086 -7.31659,-3.751726 -0.27573,-2.391704 0.43413,-3.214632 5.5,-6.376028 4.87702,-3.043543 6.76252,-5.143196 11.67253,-12.998274 4.74121,-7.585049 6.31166,-9.368384 8.25,-9.368384 2.37341,0 2.39406,0.09056 2.39406,10.5 v 10.5 h 25.53266 25.53267 l 11.19831,23.25 c 6.15914,12.7875 14.38104,29.73118 18.27094,37.65263 l 7.0726,14.40263 6.6527,-16.90263 c 3.6589,-9.29645 10.3122,-26.24013 14.785,-37.65263 l 8.1323,-20.75 h 6.9114 c 8.5569,0 8.5012,-0.737854 1.2706,16.810126 -3.1024,7.529431 -6.6428,16.164874 -7.8676,19.189874 -12.0133,29.67261 -29.1825,70.46684 -31.3041,74.37926 -5.8863,10.85451 -20.1792,16.89702 -31.93748,13.50196 z"
         id="path220" /></g><g
       id="g236"
       transform="translate(-67.396112,133.68738)"
       inkscape:export-filename="logo2.png"
       inkscape:export-xdpi="96"
       inkscape:export-ydpi="96"><path
         style="fill:#65bbd4;fill-opacity:1"
         d="m 239.77773,499.36014 c -1.21234,-0.55126 -1.20434,-0.50426 -3.17526,-1.79716 -1.4514,-0.95211 -4.31306,-3.67465 -6.27485,-6.13447 -0.98089,-1.22991 -2.61013,-3.49882 -4.12834,-5.74633 -1.51822,-2.2475 -2.58015,-4.74982 -3.11698,-6.17033 -1.07366,-2.84103 -1.40855,-6.16712 -1.757,-8.82609 -0.40043,-3.05573 -0.32743,-7.74694 0.67293,-12.03841 0.87047,-3.73427 2.21233,-6.92826 3.76027,-10.20716 3.17469,-6.72473 7.33468,-13.82821 11.26225,-19.25792 6.109,-8.03335 12.00878,-16.14695 12.50251,-17.09333 2.33148,-4.46901 5.36815,-8.08402 8.0718,-12.26895 3.30369,-4.93907 6.23789,-11.26508 7.44586,-14.47985 1.40262,-3.73282 2.41888,-6.97635 2.44905,-11.12744 0.026,-3.575 -3.2163,-17.30197 -3.2163,-20.16626 4.86787,7.59369 7.49686,12.6474 14.04554,23.99535 5.5544,9.625 10.99184,20.35989 12.0832,23.85532 1.09137,3.49544 1.97896,8.44544 1.97243,11.00001 -0.007,2.55456 -0.6129,6.89466 -1.34748,9.64466 -0.73459,2.75 -2.36706,7.025 -3.62771,9.5 -1.26065,2.475 -11.88803,18.04391 -23.6164,34.59758 -11.72837,16.55367 -23.29702,32.0698 -24.00552,32.72078 z"
         id="path178"
         sodipodi:nodetypes="cssssssacsssscsscsssc"
         inkscape:export-filename="path178.png"
         inkscape:export-xdpi="96"
         inkscape:export-ydpi="96" /><circle
         style="fill:#65bbd4;fill-opacity:1"
         id="path173"
         cx="207.57451"
         cy="410.59149"
         r="22.787621" /><circle
         style="fill:#3c6aa6;fill-opacity:1"
         id="circle173"
         cx="354.24393"
         cy="501.18954"
         r="22.787621" /><circle
         style="fill:#0d9c96;fill-opacity:1"
         id="circle174"
         cx="359.76822"
         cy="329.10849"
         r="22.787621" /><path
         style="fill:#0d9c96;fill-opacity:1"
         d="m 265.94669,313.02415 c 1.08007,-0.77918 1.0353,-0.79555 3.13563,-1.86546 1.54671,-0.78789 5.33025,-1.92198 8.43926,-2.40507 1.55451,-0.24154 4.33279,-0.53059 7.0374,-0.73386 2.70461,-0.20327 5.40411,0.11604 6.90381,0.35462 2.99943,0.47717 6.05352,1.83641 8.53509,2.85294 2.85186,1.16821 6.8889,3.55884 10.11881,6.55636 2.81054,2.60832 4.91812,5.35792 6.99719,8.32857 4.26399,6.09253 8.36805,13.22848 11.13411,19.33228 3.94457,9.28951 8.0626,18.43718 8.63938,19.33536 2.72372,4.24137 4.67315,8.55832 6.96558,12.98192 2.64956,5.3187 6.5942,10.87098 8.78626,13.51463 2.54529,3.06966 5.10753,6.45185 8.69685,8.53735 3.09118,1.79607 16.14365,5.14659 18.63064,6.56751 -9.00828,0.45952 -14.70048,0.23531 -27.80232,0.29164 -11.11259,0.0479 -23.13086,-0.55633 -26.70725,-1.34275 -3.57642,-0.78642 -8.31469,-2.47137 -10.52951,-3.74433 -2.21459,-1.27336 -5.6824,-3.9525 -7.70575,-5.95455 -2.02333,-2.00206 -4.92536,-5.54026 -6.44894,-7.86266 -1.52359,-2.3224 -9.76959,-19.27338 -18.32443,-37.66885 -8.55484,-18.39547 -16.28805,-36.13754 -16.50181,-37.07565 z"
         id="path179"
         sodipodi:nodetypes="cssssssacsssscsscsssc" /><path
         style="fill:#007e7b;fill-opacity:1"
         d="m 337.22044,365.18181 c 0.2386,-0.41734 10.84942,-0.16464 20.84937,-0.36071 9.66274,-0.18946 17.68251,-0.46781 24.74868,1.01972 4.67872,0.98494 8.28345,1.86808 12.82796,4.48113 5.37538,3.09075 9.0218,6.38548 12.52089,11.26698 2.32781,3.24747 4.34231,9.19733 5.31415,12.16256 0.97185,2.96524 1.50897,6.58651 1.43232,8.40533 -0.0767,1.81883 0.0354,4.07055 -0.18208,4.5343 -0.56754,0.0151 -11.74268,-0.0746 -22.52223,-0.0583 -15.44996,0.0233 -21.18127,-0.89356 -25.25413,-2.51284 -2.84167,-1.12977 -6.58124,-3.67848 -8.90693,-5.54446 -2.3257,-1.86594 -5.97509,-5.90485 -8.10975,-8.97535 -2.13467,-3.07051 -5.63835,-9.27188 -7.82954,-13.49257 -2.20912,-4.25523 -5.12729,-10.50848 -4.88869,-10.92581 z"
         id="path175"
         sodipodi:nodetypes="ssssssscsssssss" /><path
         style="fill:#4f8899;fill-opacity:1"
         d="m 249.52326,412.08894 c -0.4807,-0.004 -5.4431,-9.38667 -10.4987,-18.01676 -4.88512,-8.33906 -9.04529,-15.20107 -11.19878,-22.09352 -1.4259,-4.5637 -2.41602,-8.14053 -2.35568,-13.38238 0.0713,-6.20018 1.16517,-10.99134 3.71557,-16.42899 1.69668,-3.61746 5.90448,-8.28153 8.01721,-10.57792 2.11274,-2.29641 5.01026,-4.53392 6.63479,-5.35545 1.62455,-0.82149 3.53463,-2.01916 4.04552,-2.05591 0.29039,0.48785 5.67066,10.28298 10.95019,19.68114 7.56693,13.4701 9.56635,18.91902 10.14279,23.2639 0.4022,3.03145 0.005,7.53949 -0.48741,10.48031 -0.49221,2.94081 -2.23396,8.09805 -3.87056,11.46053 -1.63661,3.36249 -5.33648,9.44885 -7.94912,13.42247 -2.63401,4.00613 -6.66514,9.60692 -7.14584,9.60257 z"
         id="path176"
         sodipodi:nodetypes="ssssssscsssssss" /><path
         style="fill:#3c6aa6;fill-opacity:1"
         d="m 413.30987,428.67711 c 0.15582,1.32264 0.19189,1.29147 0.10573,3.64704 -0.0634,1.73467 -0.91175,5.59234 -2.00104,8.54408 -0.54465,1.47586 -1.64273,4.04426 -2.77995,6.50656 -1.13721,2.46231 -2.72862,4.66609 -3.66619,5.86066 -1.87517,2.38915 -4.54773,4.39724 -6.64247,6.07163 -2.40731,1.92423 -6.45904,4.28989 -10.64872,5.65518 -3.6457,1.18801 -7.0731,1.69304 -10.67982,2.0657 -7.39706,0.76428 -15.62817,0.88155 -22.30686,0.33137 -10.03552,-1.06906 -20.03142,-1.91758 -21.09672,-1.85021 -5.03056,0.31823 -9.75076,-0.0769 -14.73089,-0.22415 -5.93597,-0.27033 -12.70566,0.47753 -16.08156,1.1079 -3.91989,0.73195 -8.12115,1.32676 -11.68855,3.44949 -3.07234,1.82815 -12.34576,11.60549 -14.79653,13.08802 3.97784,-8.0955 6.94104,-12.96077 13.26133,-24.4375 5.36055,-9.73429 11.73128,-19.943 14.1572,-22.68598 2.42593,-2.74302 6.20187,-6.06453 8.39102,-7.38115 2.18938,-1.31622 6.2165,-3.04419 8.9497,-3.83903 2.7332,-0.79483 7.23596,-1.61074 10.00615,-1.81311 2.77017,-0.20239 21.592,0.83241 41.82629,2.29957 20.23427,1.46716 39.49813,3.33467 40.42184,3.60394 z"
         id="path180"
         sodipodi:nodetypes="cssssssacsssscsscsssc" /><path
         style="fill:#394a7e;fill-opacity:1"
         d="m 334.20302,465.51229 c 0.23597,0.41882 -5.42824,9.39527 -10.39345,18.07767 -4.79776,8.38963 -8.67583,15.41493 -13.57981,20.71535 -3.24706,3.50957 -5.85544,6.14972 -10.43084,8.70832 -5.41185,3.02643 -10.11122,4.46434 -16.09667,4.96128 -3.9819,0.3306 -10.12209,-0.99496 -13.16569,-1.68313 -3.0436,-0.68819 -6.42703,-2.08622 -7.94856,-3.08569 -1.52151,-0.99952 -3.51144,-2.05924 -3.79778,-2.48394 0.27839,-0.49479 6.09211,-10.03903 11.6118,-19.29819 7.91122,-13.27081 11.64021,-17.71863 15.12066,-20.38262 2.42831,-1.85869 6.53517,-3.75969 9.3305,-4.79751 2.7952,-1.03799 8.13472,-2.09646 11.86559,-2.35214 3.73088,-0.25569 10.85138,-0.079 15.59834,0.20724 4.7858,0.2886 11.65025,0.99438 11.88592,1.41338 z"
         id="path177"
         sodipodi:nodetypes="ssssssscsssssss" /></g></g></svg>
